<?xml version="1.0" standalone="no"?><!DOCTYPE svg PUBLIC "-//W3C//DTD SVG 1.1//EN" "http://www.w3.org/Graphics/SVG/1.1/DTD/svg11.dtd"><svg class="icon" width="200px" height="200.00px" viewBox="0 0 1024 1024" version="1.1" xmlns="http://www.w3.org/2000/svg"><path  d="M751.525888 886.317056 751.525888 536.143872c0-124.839936-101.20192-226.041856-226.041856-226.041856l-44.292096 0c-124.839936 0-226.043904 101.20192-226.043904 226.041856l0 350.173184L751.525888 886.317056zM912.939008 954.146816c0 21.430272-17.371136 38.805504-38.807552 38.805504L132.552704 992.95232c-21.436416 0-38.811648-17.375232-38.811648-38.805504l0 0c0-21.438464 17.373184-38.811648 38.811648-38.811648l741.578752 0C895.565824 915.33312 912.939008 932.708352 912.939008 954.146816L912.939008 954.146816zM212.033536 397.617152c-9.160704 9.838592-20.574208 14.10048-25.493504 9.521152L16.359424 248.690688c-4.919296-4.579328-1.480704-16.267264 7.677952-26.105856l0 0c9.160704-9.838592 20.574208-14.10048 25.493504-9.521152l170.182656 158.451712C224.632832 376.092672 221.192192 387.77856 212.033536 397.617152L212.033536 397.617152zM779.476992 397.617152c9.160704 9.838592 20.576256 14.10048 25.493504 9.521152l170.182656-158.449664c4.921344-4.579328 1.480704-16.267264-7.675904-26.105856l0 0c-9.166848-9.838592-20.57216-14.10048-25.493504-9.521152l-170.182656 158.451712C766.881792 376.092672 770.320384 387.77856 779.476992 397.617152L779.476992 397.617152zM629.28896 267.522048c12.519424 4.876288 24.662016 3.745792 27.097088-2.516992L740.716544 48.31232c2.43712-6.264832-5.746688-15.292416-18.270208-20.168704l0 0c-12.53376-4.870144-24.65792-3.749888-27.09504 2.514944L611.0208 247.355392C608.58368 253.618176 616.763392 262.647808 629.28896 267.522048L629.28896 267.522048zM410.04032 267.522048c-12.52352 4.876288-24.664064 3.745792-27.097088-2.516992L298.610688 48.31232c-2.439168-6.264832 5.74464-15.292416 18.26816-20.168704l0 0c12.535808-4.870144 24.65792-3.749888 27.097088 2.514944l84.330496 216.696832C430.741504 253.618176 422.561792 262.647808 410.04032 267.522048L410.04032 267.522048z" /></svg>
